<?xml version="1.0" encoding="utf-8"?>
<!-- Generator: Adobe Illustrator 24.0.1, SVG Export Plug-In . SVG Version: 6.00 Build 0)  -->
<svg version="1.1" id="圖層_1" xmlns="http://www.w3.org/2000/svg" xmlns:xlink="http://www.w3.org/1999/xlink" x="0px" y="0px"
	 viewBox="0 0 464 464" style="enable-background:new 0 0 464 464;" xml:space="preserve">
<style type="text/css">
	.st0{fill:#00C9FF;}
	.st1{fill:#FFCD00;}
	.st2{fill:#FFFFFF;}
</style>
<path class="st0" d="M160,0C71.6,0,0,60.9,0,136c0.2,28.3,10.2,55.6,28.4,77.2L0,288l79-34.7c21.7,10.8,45.4,17,69.7,18.3
	c3.8,0.3,7.5,0.4,11.4,0.4c75.3,0,138.3-44.2,155.4-103.6c3.1-10.5,4.6-21.4,4.6-32.4C320,60.9,248.4,0,160,0z M185.8,170.7
	c-6.2,8.1-15.7,13-25.8,13.3c-22.1,0-40-25.1-40-56s17.9-56,40-56s40,25.1,40,56C200.4,143.4,195.4,158.5,185.8,170.7z"/>
<path class="st0" d="M185.8,170.7L168,160L185.8,170.7c9.5-12.2,14.5-27.3,14.2-42.7c0-30.9-17.9-56-40-56s-40,25.1-40,56
	s17.9,56,40,56C170.2,183.7,179.6,178.8,185.8,170.7z"/>
<path class="st1" d="M464,304c0-71.8-65.5-130.7-148.6-135.6C298.3,227.8,235.3,272,160,272c-3.8,0-7.6-0.1-11.4-0.4
	c-3.1,10.5-4.6,21.4-4.6,32.4c0,75.1,71.6,136,160,136c25.8,0.1,51.3-5.3,74.8-15.8L464,464l-33.1-77.2
	C451.9,364.3,463.8,334.8,464,304z"/>
<path class="st2" d="M212.1,177.1l-14.8-8.9c7.2-12.2,10.9-26.1,10.7-40.2c0-35.3-21.5-64-48-64s-48,28.7-48,64s21.5,64,48,64
	c10.1-0.2,19.8-4.2,27.1-11.2l16.8,10.1c3.8,2.2,8.6,0.9,10.9-2.8S215.8,179.5,212.1,177.1L212.1,177.1z M160,176
	c-17.3,0-32-22-32-48s14.7-48,32-48s32,22,32,48c0.1,11.2-2.8,22.3-8.4,32l-11.4-6.9c-3.8-2.2-8.6-0.9-10.9,2.8s-1.1,8.6,2.6,10.9
	l8.6,5.2C168.8,174.6,164.5,175.9,160,176z"/>
<path class="st2" d="M352.5,367.3l-40-112c-1.1-3.2-4.2-5.3-7.5-5.3s-6.4,2.1-7.5,5.3l-40,112c-1.5,4.2,0.7,8.7,4.8,10.2
	c4.2,1.5,8.7-0.7,10.2-4.8l12.4-34.7h40.1l12.4,34.7c1.1,3.2,4.2,5.3,7.5,5.3c2.6,0,5-1.3,6.5-3.4S353.4,369.8,352.5,367.3z
	 M290.6,322l14.4-40.2l14.4,40.2H290.6z"/>
</svg>
